<svg width="57" height="56" viewBox="0 0 57 56" fill="none" xmlns="http://www.w3.org/2000/svg">
<path d="M0.333252 12C0.333252 5.37258 5.70584 0 12.3333 0H44.3333C50.9607 0 56.3333 5.37258 56.3333 12V44C56.3333 50.6274 50.9607 56 44.3333 56H12.3333C5.70584 56 0.333252 50.6274 0.333252 44V12Z" fill="#FF414D"/>
<g clip-path="url(#clip0_62_696)">
<path d="M16 28C16 29.5759 16.3104 31.1363 16.9134 32.5922C17.5165 34.0481 18.4004 35.371 19.5147 36.4853C20.629 37.5996 21.9519 38.4835 23.4078 39.0866C24.8637 39.6896 26.4241 40 28 40C29.5759 40 31.1363 39.6896 32.5922 39.0866C34.0481 38.4835 35.371 37.5996 36.4853 36.4853C37.5996 35.371 38.4835 34.0481 39.0866 32.5922C39.6896 31.1363 40 29.5759 40 28C40 26.4241 39.6896 24.8637 39.0866 23.4078C38.4835 21.9519 37.5996 20.629 36.4853 19.5147C35.371 18.4004 34.0481 17.5165 32.5922 16.9134C31.1363 16.3104 29.5759 16 28 16C26.4241 16 24.8637 16.3104 23.4078 16.9134C21.9519 17.5165 20.629 18.4004 19.5147 19.5147C18.4004 20.629 17.5165 21.9519 16.9134 23.4078C16.3104 24.8637 16 26.4241 16 28Z" stroke="white" stroke-width="2" stroke-linecap="round" stroke-linejoin="round"/>
<path d="M25.3333 34L28 30M28 30L30.6667 34M28 30V27.3333M28 27.3333L32 26M28 27.3333L24 26" stroke="white" stroke-width="2" stroke-linecap="round" stroke-linejoin="round"/>
<path d="M28 22.6667C28.3682 22.6667 28.6667 22.3682 28.6667 22C28.6667 21.6318 28.3682 21.3333 28 21.3333C27.6319 21.3333 27.3334 21.6318 27.3334 22C27.3334 22.3682 27.6319 22.6667 28 22.6667Z" fill="white" stroke="white" stroke-width="2" stroke-linecap="round" stroke-linejoin="round"/>
</g>
<defs>
<clipPath id="clip0_62_696">
<rect width="32" height="32" fill="white" transform="translate(12 12)"/>
</clipPath>
</defs>
</svg>
