<svg width="20" height="21" viewBox="0 0 20 21" fill="none" xmlns="http://www.w3.org/2000/svg">
<g clip-path="url(#clip0_412_4883)">
<path d="M10 13C11.3807 13 12.5 11.8807 12.5 10.5C12.5 9.11929 11.3807 8 10 8C8.61929 8 7.5 9.11929 7.5 10.5C7.5 11.8807 8.61929 13 10 13Z" stroke="#002D40" stroke-width="2" stroke-linecap="round" stroke-linejoin="round"/>
<path d="M16.1654 13C16.0544 13.2513 16.0213 13.5302 16.0704 13.8005C16.1194 14.0708 16.2483 14.3203 16.4404 14.5167L16.4904 14.5667C16.6453 14.7214 16.7683 14.9053 16.8521 15.1076C16.936 15.3099 16.9792 15.5268 16.9792 15.7458C16.9792 15.9649 16.936 16.1817 16.8521 16.3841C16.7683 16.5864 16.6453 16.7702 16.4904 16.925C16.3356 17.08 16.1518 17.2029 15.9494 17.2868C15.7471 17.3706 15.5302 17.4138 15.3112 17.4138C15.0922 17.4138 14.8753 17.3706 14.673 17.2868C14.4706 17.2029 14.2868 17.08 14.132 16.925L14.082 16.875C13.8856 16.6829 13.6362 16.554 13.3659 16.505C13.0955 16.456 12.8167 16.4891 12.5654 16.6C12.3189 16.7056 12.1087 16.881 11.9606 17.1046C11.8126 17.3282 11.7331 17.5902 11.732 17.8583V18C11.732 18.442 11.5564 18.8659 11.2439 19.1785C10.9313 19.4911 10.5074 19.6667 10.0654 19.6667C9.62334 19.6667 9.19941 19.4911 8.88685 19.1785C8.57429 18.8659 8.3987 18.442 8.3987 18V17.925C8.39225 17.6492 8.30296 17.3817 8.14246 17.1572C7.98195 16.9328 7.75764 16.7619 7.4987 16.6667C7.24735 16.5557 6.96854 16.5226 6.69821 16.5717C6.42788 16.6207 6.17843 16.7495 5.98203 16.9417L5.93203 16.9917C5.77724 17.1466 5.59343 17.2696 5.3911 17.3534C5.18877 17.4373 4.97189 17.4805 4.75286 17.4805C4.53384 17.4805 4.31696 17.4373 4.11463 17.3534C3.9123 17.2696 3.72849 17.1466 3.5737 16.9917C3.41874 16.8369 3.29581 16.6531 3.21193 16.4507C3.12806 16.2484 3.08489 16.0315 3.08489 15.8125C3.08489 15.5935 3.12806 15.3766 3.21193 15.1743C3.29581 14.9719 3.41874 14.7881 3.5737 14.6333L3.6237 14.5833C3.81581 14.3869 3.94469 14.1375 3.9937 13.8672C4.04272 13.5968 4.00963 13.318 3.8987 13.0667C3.79306 12.8202 3.61766 12.61 3.39409 12.4619C3.17051 12.3139 2.90852 12.2344 2.64036 12.2333H2.4987C2.05667 12.2333 1.63275 12.0577 1.32019 11.7452C1.00763 11.4326 0.832031 11.0087 0.832031 10.5667C0.832031 10.1246 1.00763 9.70071 1.32019 9.38815C1.63275 9.07559 2.05667 8.9 2.4987 8.9H2.5737C2.84953 8.89354 3.11704 8.80426 3.34145 8.64375C3.56586 8.48325 3.73679 8.25894 3.83203 8C3.94296 7.74865 3.97605 7.46983 3.92704 7.1995C3.87802 6.92918 3.74915 6.67973 3.55703 6.48333L3.50703 6.43333C3.35207 6.27854 3.22914 6.09473 3.14527 5.8924C3.06139 5.69007 3.01822 5.47319 3.01822 5.25416C3.01822 5.03514 3.06139 4.81826 3.14527 4.61593C3.22914 4.4136 3.35207 4.22978 3.50703 4.075C3.66182 3.92003 3.84563 3.7971 4.04796 3.71323C4.25029 3.62935 4.46717 3.58618 4.6862 3.58618C4.90522 3.58618 5.1221 3.62935 5.32443 3.71323C5.52676 3.7971 5.71058 3.92003 5.86536 4.075L5.91536 4.12499C6.11176 4.31711 6.36121 4.44598 6.63154 4.495C6.90187 4.54401 7.18068 4.51092 7.43203 4.39999H7.4987C7.74517 4.29436 7.95538 4.11896 8.10344 3.89538C8.25151 3.67181 8.33096 3.40982 8.33203 3.14166V2.99999C8.33203 2.55797 8.50763 2.13404 8.82019 1.82148C9.13275 1.50892 9.55667 1.33333 9.9987 1.33333C10.4407 1.33333 10.8646 1.50892 11.1772 1.82148C11.4898 2.13404 11.6654 2.55797 11.6654 2.99999V3.07499C11.6664 3.34315 11.7459 3.60514 11.894 3.82872C12.042 4.05229 12.2522 4.22769 12.4987 4.33333C12.75 4.44426 13.0289 4.47735 13.2992 4.42833C13.5695 4.37932 13.819 4.25044 14.0154 4.05833L14.0654 4.00833C14.2202 3.85337 14.404 3.73044 14.6063 3.64656C14.8086 3.56269 15.0255 3.51952 15.2445 3.51952C15.4636 3.51952 15.6804 3.56269 15.8828 3.64656C16.0851 3.73044 16.2689 3.85337 16.4237 4.00833C16.5787 4.16312 16.7016 4.34693 16.7855 4.54926C16.8693 4.75159 16.9125 4.96847 16.9125 5.1875C16.9125 5.40652 16.8693 5.6234 16.7855 5.82573C16.7016 6.02806 16.5787 6.21187 16.4237 6.36666L16.3737 6.41666C16.1816 6.61306 16.0527 6.86251 16.0037 7.13284C15.9547 7.40317 15.9878 7.68198 16.0987 7.93333V8C16.2043 8.24647 16.3797 8.45668 16.6033 8.60474C16.8269 8.7528 17.0889 8.83226 17.357 8.83333H17.4987C17.9407 8.83333 18.3646 9.00892 18.6772 9.32148C18.9898 9.63404 19.1654 10.058 19.1654 10.5C19.1654 10.942 18.9898 11.3659 18.6772 11.6785C18.3646 11.9911 17.9407 12.1667 17.4987 12.1667H17.4237C17.1555 12.1677 16.8936 12.2472 16.67 12.3953C16.4464 12.5433 16.271 12.7535 16.1654 13Z" stroke="#002D40" stroke-width="2" stroke-linecap="round" stroke-linejoin="round"/>
</g>
<defs>
<clipPath id="clip0_412_4883">
<rect width="20" height="20" fill="white" transform="translate(0 0.5)"/>
</clipPath>
</defs>
</svg>
