<svg width="112" height="112" viewBox="0 0 112 112" fill="none" xmlns="http://www.w3.org/2000/svg">
<g opacity="0.15">
<path d="M55.5489 100.567C62.9829 100.567 67.2296 97.076 68.236 92.554H42.8649C43.8713 97.076 48.1149 100.567 55.5489 100.567Z" fill="#EAEAEA"/>
<path d="M70.3158 16.5746C70.3158 16.5746 51.2913 11.197 42.0047 18.5486C32.718 25.9001 32.0475 42.8152 32.0475 42.8152C32.9575 46.2577 38.6213 56.0266 38.6213 56.0266C39.4613 57.4437 42.126 67.6637 43.6753 73.6977H68.4398C69.7869 69.2721 75.2064 53.2421 75.9142 51.5932C76.8227 49.473 78.372 45.3461 79.1544 43.789C81.0367 40.0417 80.9682 36.7377 79.9913 32.8581C77.8789 24.4814 76.1429 22.4001 70.3142 16.5714L70.3158 16.5746Z" fill="#FF414D"/>
<path d="M55.5489 11.2032C42.2769 11.2032 29.8822 21.7063 29.8822 34.972C29.8822 36.6505 29.4716 41.958 31.7753 41.958C31.7753 41.958 35.4978 29.7858 44.7829 22.4358C54.068 15.0858 68.9251 16.6414 68.9251 16.6414C67.8922 13.4603 60.2918 11.1985 55.5536 11.1985L55.5489 11.2032Z" fill="white"/>
<path d="M56 73.4533V54.8799M65.2867 54.8799H46.7133M81.7444 36.9444C81.7444 43.1433 78.9678 46.1346 75.9049 53.2777C75.1224 55.1008 69.3544 74.0911 69.3544 74.0911H42.6456C42.6456 74.0911 38.0084 55.9377 37.1296 54.4599C33.4429 48.2408 30.2556 43.7111 30.2556 36.9444C30.2556 22.7251 41.7822 11.2 56 11.2C70.2178 11.2 81.7444 22.7266 81.7444 36.9444Z" stroke="black" stroke-width="2" stroke-linecap="round" stroke-linejoin="round"/>
<path d="M68.6933 91.4512C68.6933 96.4912 63.014 100.578 56.0078 100.578C49.0016 100.578 43.3222 96.4912 43.3222 91.4512H68.6933Z" stroke="black" stroke-width="1.696" stroke-linecap="round" stroke-linejoin="round"/>
<path d="M43.54 85.5245L68.46 80.1267" stroke="black" stroke-width="1.965" stroke-linecap="round" stroke-linejoin="round"/>
<path d="M59.4222 87.22L68.4133 85.3845M43.5867 80.2667L52.5778 78.4312" stroke="black" stroke-width="2" stroke-linecap="round" stroke-linejoin="round"/>
</g>
</svg>
