<svg width="56" height="56" viewBox="0 0 56 56" fill="none" xmlns="http://www.w3.org/2000/svg">
<path d="M0 12C0 5.37258 5.37258 0 12 0H44C50.6274 0 56 5.37258 56 12V44C56 50.6274 50.6274 56 44 56H12C5.37258 56 0 50.6274 0 44V12Z" fill="#FF414D"/>
<g clip-path="url(#clip0_62_7595)">
<path d="M25.3333 29.3333C25.3333 30.0406 25.6142 30.7188 26.1143 31.2189C26.6144 31.719 27.2927 32 27.9999 32C28.7072 32 29.3854 31.719 29.8855 31.2189C30.3856 30.7188 30.6666 30.0406 30.6666 29.3333C30.6666 28.6261 30.3856 27.9478 29.8855 27.4477C29.3854 26.9476 28.7072 26.6667 27.9999 26.6667C27.2927 26.6667 26.6144 26.9476 26.1143 27.4477C25.6142 27.9478 25.3333 28.6261 25.3333 29.3333Z" stroke="white" stroke-width="2" stroke-linecap="round" stroke-linejoin="round"/>
<path d="M22.6667 40V38.6667C22.6667 37.9594 22.9477 37.2811 23.4478 36.781C23.9479 36.281 24.6262 36 25.3334 36H30.6667C31.374 36 32.0523 36.281 32.5524 36.781C33.0525 37.2811 33.3334 37.9594 33.3334 38.6667V40" stroke="white" stroke-width="2" stroke-linecap="round" stroke-linejoin="round"/>
<path d="M32 18.6667C32 19.3739 32.281 20.0522 32.781 20.5523C33.2811 21.0524 33.9594 21.3333 34.6667 21.3333C35.3739 21.3333 36.0522 21.0524 36.5523 20.5523C37.0524 20.0522 37.3333 19.3739 37.3333 18.6667C37.3333 17.9594 37.0524 17.2811 36.5523 16.781C36.0522 16.281 35.3739 16 34.6667 16C33.9594 16 33.2811 16.281 32.781 16.781C32.281 17.2811 32 17.9594 32 18.6667Z" stroke="white" stroke-width="2" stroke-linecap="round" stroke-linejoin="round"/>
<path d="M34.6667 25.3333H37.3334C38.0407 25.3333 38.7189 25.6143 39.219 26.1144C39.7191 26.6145 40.0001 27.2928 40.0001 28V29.3333" stroke="white" stroke-width="2" stroke-linecap="round" stroke-linejoin="round"/>
<path d="M18.6667 18.6667C18.6667 19.3739 18.9477 20.0522 19.4478 20.5523C19.9479 21.0524 20.6262 21.3333 21.3334 21.3333C22.0407 21.3333 22.7189 21.0524 23.219 20.5523C23.7191 20.0522 24.0001 19.3739 24.0001 18.6667C24.0001 17.9594 23.7191 17.2811 23.219 16.781C22.7189 16.281 22.0407 16 21.3334 16C20.6262 16 19.9479 16.281 19.4478 16.781C18.9477 17.2811 18.6667 17.9594 18.6667 18.6667Z" stroke="white" stroke-width="2" stroke-linecap="round" stroke-linejoin="round"/>
<path d="M16 29.3333V28C16 27.2928 16.281 26.6145 16.781 26.1144C17.2811 25.6143 17.9594 25.3333 18.6667 25.3333H21.3333" stroke="white" stroke-width="2" stroke-linecap="round" stroke-linejoin="round"/>
</g>
<defs>
<clipPath id="clip0_62_7595">
<rect width="32" height="32" fill="white" transform="translate(12 12)"/>
</clipPath>
</defs>
</svg>
