<svg width="24" height="24" viewBox="0 0 24 24" fill="none" xmlns="http://www.w3.org/2000/svg">
<g clip-path="url(#clip0_412_4435)">
<path d="M4 7.00012H20" stroke="white" stroke-width="2" stroke-linecap="round" stroke-linejoin="round"/>
<path d="M10 11.0001V17.0001" stroke="white" stroke-width="2" stroke-linecap="round" stroke-linejoin="round"/>
<path d="M14 11.0001V17.0001" stroke="white" stroke-width="2" stroke-linecap="round" stroke-linejoin="round"/>
<path d="M5 7.00012L6 19.0001C6 19.5306 6.21071 20.0393 6.58579 20.4143C6.96086 20.7894 7.46957 21.0001 8 21.0001H16C16.5304 21.0001 17.0391 20.7894 17.4142 20.4143C17.7893 20.0393 18 19.5306 18 19.0001L19 7.00012" stroke="white" stroke-width="2" stroke-linecap="round" stroke-linejoin="round"/>
<path d="M9 7.00012V4.00012C9 3.73491 9.10536 3.48055 9.29289 3.29302C9.48043 3.10548 9.73478 3.00012 10 3.00012H14C14.2652 3.00012 14.5196 3.10548 14.7071 3.29302C14.8946 3.48055 15 3.73491 15 4.00012V7.00012" stroke="white" stroke-width="2" stroke-linecap="round" stroke-linejoin="round"/>
</g>
<defs>
<clipPath id="clip0_412_4435">
<rect width="24" height="24" fill="white"/>
</clipPath>
</defs>
</svg>
