<svg width="20" height="21" viewBox="0 0 20 21" fill="none" xmlns="http://www.w3.org/2000/svg">
<g clip-path="url(#clip0_120_2726)">
<path d="M5.83594 6.33334H5.0026C4.56058 6.33334 4.13665 6.50894 3.82409 6.8215C3.51153 7.13406 3.33594 7.55798 3.33594 8.00001V15.5C3.33594 15.942 3.51153 16.366 3.82409 16.6785C4.13665 16.9911 4.56058 17.1667 5.0026 17.1667H12.5026C12.9446 17.1667 13.3686 16.9911 13.6811 16.6785C13.9937 16.366 14.1693 15.942 14.1693 15.5V14.6667" stroke="#002D40" stroke-width="2" stroke-linecap="round" stroke-linejoin="round"/>
<path d="M16.9875 5.9875C17.3157 5.65929 17.5001 5.21415 17.5001 4.75C17.5001 4.28585 17.3157 3.8407 16.9875 3.5125C16.6593 3.18429 16.2142 2.99991 15.75 2.99991C15.2858 2.99991 14.8407 3.18429 14.5125 3.5125L7.5 10.5V13H10L16.9875 5.9875Z" stroke="#002D40" stroke-width="2" stroke-linecap="round" stroke-linejoin="round"/>
<path d="M13.3359 4.66666L15.8359 7.16666" stroke="#002D40" stroke-width="2" stroke-linecap="round" stroke-linejoin="round"/>
</g>
<defs>
<clipPath id="clip0_120_2726">
<rect width="20" height="20" fill="white" transform="translate(0 0.5)"/>
</clipPath>
</defs>
</svg>
