<svg width="11" height="18" viewBox="0 0 11 18" fill="none" xmlns="http://www.w3.org/2000/svg">
<path d="M10.166 3H7.16602C6.61372 3 6.16602 3.44772 6.16602 4V7H10.166C10.2797 6.99748 10.3876 7.0504 10.4552 7.1419C10.5228 7.2334 10.5418 7.352 10.506 7.46L9.76602 9.66C9.69782 9.8619 9.50912 9.9984 9.29602 10H6.16602V17.5C6.16602 17.7761 5.94212 18 5.66602 18H3.16602C2.88988 18 2.66602 17.7761 2.66602 17.5V10H1.16602C0.889876 10 0.666016 9.7761 0.666016 9.5V7.5C0.666016 7.2239 0.889876 7 1.16602 7H2.66602V4C2.66602 1.79086 4.45692 0 6.66602 0H10.166C10.4421 0 10.666 0.22386 10.666 0.5V2.5C10.666 2.77614 10.4421 3 10.166 3Z" fill="#00C9D4"/>
</svg>
