<svg width="57" height="56" viewBox="0 0 57 56" fill="none" xmlns="http://www.w3.org/2000/svg">
<path d="M0.666748 12C0.666748 5.37258 6.03933 0 12.6667 0H44.6667C51.2942 0 56.6667 5.37258 56.6667 12V44C56.6667 50.6274 51.2942 56 44.6667 56H12.6667C6.03933 56 0.666748 50.6274 0.666748 44V12Z" fill="#FF414D"/>
<path d="M34.3333 40V37.3333C34.3333 35.9188 33.7713 34.5623 32.7712 33.5621C31.771 32.5619 30.4144 32 28.9999 32H19.6666C18.2521 32 16.8955 32.5619 15.8953 33.5621C14.8952 34.5623 14.3333 35.9188 14.3333 37.3333V40" stroke="white" stroke-width="2" stroke-linecap="round" stroke-linejoin="round"/>
<path d="M24.3333 26.6667C27.2789 26.6667 29.6667 24.2789 29.6667 21.3333C29.6667 18.3878 27.2789 16 24.3333 16C21.3878 16 19 18.3878 19 21.3333C19 24.2789 21.3878 26.6667 24.3333 26.6667Z" stroke="white" stroke-width="2" stroke-linecap="round" stroke-linejoin="round"/>
<path d="M39.6667 22.6667V30.6667" stroke="white" stroke-width="2" stroke-linecap="round" stroke-linejoin="round"/>
<path d="M43.6667 26.6667H35.6667" stroke="white" stroke-width="2" stroke-linecap="round" stroke-linejoin="round"/>
</svg>
