<svg width="20" height="18" viewBox="0 0 20 18" fill="none" xmlns="http://www.w3.org/2000/svg">
<path d="M17.3651 2.34167C16.9395 1.91584 16.4342 1.57804 15.8779 1.34757C15.3217 1.1171 14.7255 0.998482 14.1235 0.998482C13.5214 0.998482 12.9252 1.1171 12.369 1.34757C11.8128 1.57804 11.3074 1.91584 10.8818 2.34167L9.99847 3.225L9.11514 2.34167C8.25539 1.48193 7.08933 0.998927 5.87347 0.998927C4.65761 0.998927 3.49155 1.48193 2.6318 2.34167C1.77206 3.20141 1.28906 4.36748 1.28906 5.58334C1.28906 6.7992 1.77206 7.96526 2.6318 8.825L3.51514 9.70834L9.99847 16.1917L16.4818 9.70834L17.3651 8.825C17.791 8.39937 18.1288 7.89402 18.3592 7.3378C18.5897 6.78158 18.7083 6.18541 18.7083 5.58334C18.7083 4.98126 18.5897 4.38509 18.3592 3.82887C18.1288 3.27266 17.791 2.7673 17.3651 2.34167Z" stroke="#002D40" stroke-width="2" stroke-linecap="round" stroke-linejoin="round"/>
</svg>
