<svg width="56" height="56" viewBox="0 0 56 56" fill="none" xmlns="http://www.w3.org/2000/svg">
<path d="M0 12C0 5.37258 5.37258 0 12 0H44C50.6274 0 56 5.37258 56 12V44C56 50.6274 50.6274 56 44 56H12C5.37258 56 0 50.6274 0 44V12Z" fill="#FF414D"/>
<g clip-path="url(#clip0_331_447)">
<path d="M39.25 30.358L28 41.5L23.656 37.198M14.4805 25.042C14.4679 23.46 14.9559 21.9146 15.8747 20.6267C16.7935 19.3389 18.096 18.3745 19.596 17.8716C21.0959 17.3687 22.7165 17.353 24.2259 17.8266C25.7353 18.3003 27.0563 19.2392 28 20.509C28.6203 19.684 29.4042 18.996 30.3026 18.4879C31.2011 17.9798 32.1947 17.6627 33.2214 17.5563C34.248 17.4499 35.2856 17.5565 36.2691 17.8696C37.2527 18.1826 38.161 18.6953 38.9373 19.3755C39.7136 20.0558 40.3411 20.8889 40.7806 21.8228C41.2201 22.7567 41.4621 23.7713 41.4914 24.803C41.5208 25.8348 41.3368 26.8615 40.9512 27.8189C40.5655 28.7762 39.9863 29.6437 39.25 30.367" stroke="white" stroke-width="2" stroke-linecap="round" stroke-linejoin="round"/>
<path d="M14.5 29.5H17.5L20.5 34L23.5 25L25 29.5H29.5" stroke="white" stroke-width="2" stroke-linecap="round" stroke-linejoin="round"/>
</g>
<defs>
<clipPath id="clip0_331_447">
<rect width="36" height="36" fill="white" transform="translate(10 10)"/>
</clipPath>
</defs>
</svg>
