<svg width="32" height="32" viewBox="0 0 32 32" fill="none" xmlns="http://www.w3.org/2000/svg">
<rect width="32" height="32" rx="6" fill="white"/>
<path d="M8.318 10.318C7.90013 10.7359 7.56866 11.2319 7.34251 11.7779C7.11636 12.3239 6.99996 12.909 6.99996 13.5C6.99996 14.091 7.11636 14.6761 7.34251 15.2221C7.56866 15.7681 7.90013 16.2641 8.318 16.682L16 24.364L23.682 16.682C24.5259 15.8381 25 14.6935 25 13.5C25 12.3065 24.5259 11.1619 23.682 10.318C22.8381 9.47408 21.6935 8.99997 20.5 8.99997C19.3065 8.99997 18.1619 9.47408 17.318 10.318L16 11.636L14.682 10.318C14.2641 9.90013 13.7681 9.56866 13.2221 9.34251C12.6761 9.11636 12.091 8.99996 11.5 8.99996C10.909 8.99996 10.3239 9.11636 9.77791 9.34251C9.23194 9.56866 8.73586 9.90013 8.318 10.318Z" stroke="#FF414D" stroke-width="2" stroke-linecap="round" stroke-linejoin="round"/>
</svg>
