<svg width="18" height="19" viewBox="0 0 18 19" fill="none" xmlns="http://www.w3.org/2000/svg">
<path fill-rule="evenodd" clip-rule="evenodd" d="M9.51292 0.508868C9.21199 0.274815 8.79061 0.274815 8.48969 0.508868L0.989685 6.3422C0.786696 6.50008 0.667969 6.74284 0.667969 7V16.1667C0.667969 16.8297 0.931361 17.4656 1.4002 17.9344C1.86904 18.4033 2.50493 18.6667 3.16797 18.6667H14.8346C15.4977 18.6667 16.1336 18.4033 16.6024 17.9344C17.0712 17.4656 17.3346 16.8297 17.3346 16.1667V7C17.3346 6.74284 17.2159 6.50008 17.0129 6.3422L9.51292 0.508868ZM12.3346 17H14.8346C15.0556 17 15.2676 16.9122 15.4239 16.7559C15.5802 16.5996 15.668 16.3877 15.668 16.1667V7.40757L9.0013 2.22238L2.33464 7.40757V16.1667C2.33464 16.3877 2.42243 16.5996 2.57871 16.7559C2.73499 16.9122 2.94696 17 3.16797 17H5.66797V9.5C5.66797 9.03976 6.04107 8.66666 6.5013 8.66666H11.5013C11.9615 8.66666 12.3346 9.03976 12.3346 9.5V17ZM7.33464 17V10.3333H10.668V17H7.33464Z" fill="#002D40"/>
</svg>
