<svg width="19" height="18" viewBox="0 0 19 18" fill="none" xmlns="http://www.w3.org/2000/svg">
<path fill-rule="evenodd" clip-rule="evenodd" d="M13.666 0H5.66602C2.9046 0 0.666016 2.23858 0.666016 5V13C0.666016 15.7614 2.9046 18 5.66602 18H13.666C16.4274 18 18.666 15.7614 18.666 13V5C18.666 2.23858 16.4274 0 13.666 0ZM16.916 13C16.9105 14.7926 15.4586 16.2445 13.666 16.25H5.66602C3.87337 16.2445 2.42151 14.7926 2.41602 13V5C2.42151 3.20735 3.87337 1.75549 5.66602 1.75H13.666C15.4586 1.75549 16.9105 3.20735 16.916 5V13ZM14.416 5.25C14.9683 5.25 15.416 4.80228 15.416 4.25C15.416 3.69772 14.9683 3.25 14.416 3.25C13.8637 3.25 13.416 3.69772 13.416 4.25C13.416 4.80228 13.8637 5.25 14.416 5.25ZM9.66602 4.5C7.18074 4.5 5.16602 6.51472 5.16602 9C5.16602 11.4853 7.18074 13.5 9.66602 13.5C12.1513 13.5 14.166 11.4853 14.166 9C14.1687 7.8057 13.6954 6.65957 12.8509 5.81508C12.0064 4.97059 10.8603 4.49734 9.66602 4.5ZM6.91602 9C6.91602 10.5188 8.14722 11.75 9.66602 11.75C11.1848 11.75 12.416 10.5188 12.416 9C12.416 7.4812 11.1848 6.25 9.66602 6.25C8.14722 6.25 6.91602 7.4812 6.91602 9Z" fill="#00C9D4"/>
</svg>
