<svg width="57" height="56" viewBox="0 0 57 56" fill="none" xmlns="http://www.w3.org/2000/svg">
<path d="M0.333252 12C0.333252 5.37258 5.70584 0 12.3333 0H44.3333C50.9607 0 56.3333 5.37258 56.3333 12V44C56.3333 50.6274 50.9607 56 44.3333 56H12.3333C5.70584 56 0.333252 50.6274 0.333252 44V12Z" fill="#FF414D"/>
<g clip-path="url(#clip0_62_7596)">
<path d="M16 37.3333C16 38.0406 16.281 38.7188 16.781 39.2189C17.2811 39.719 17.9594 40 18.6667 40C19.3739 40 20.0522 39.719 20.5523 39.2189C21.0524 38.7188 21.3333 38.0406 21.3333 37.3333C21.3333 36.6261 21.0524 35.9478 20.5523 35.4477C20.0522 34.9476 19.3739 34.6667 18.6667 34.6667C17.9594 34.6667 17.2811 34.9476 16.781 35.4477C16.281 35.9478 16 36.6261 16 37.3333Z" stroke="white" stroke-width="2" stroke-linecap="round" stroke-linejoin="round"/>
<path d="M37.3334 21.3333C38.0407 21.3333 38.7189 21.0524 39.219 20.5523C39.7191 20.0522 40.0001 19.3739 40.0001 18.6667C40.0001 17.9594 39.7191 17.2811 39.219 16.781C38.7189 16.281 38.0407 16 37.3334 16C36.6262 16 35.9479 16.281 35.4478 16.781C34.9477 17.2811 34.6667 17.9594 34.6667 18.6667C34.6667 19.3739 34.9477 20.0522 35.4478 20.5523C35.9479 21.0524 36.6262 21.3333 37.3334 21.3333Z" stroke="white" stroke-width="2" stroke-linecap="round" stroke-linejoin="round"/>
<path d="M26.6667 37.3333H34.0001C35.2378 37.3333 36.4247 36.8417 37.2999 35.9665C38.1751 35.0913 38.6667 33.9043 38.6667 32.6667C38.6667 31.429 38.1751 30.242 37.2999 29.3668C36.4247 28.4917 35.2378 28 34.0001 28H23.3334C22.0957 28 20.9088 27.5083 20.0336 26.6332C19.1584 25.758 18.6667 24.571 18.6667 23.3333C18.6667 22.0956 19.1584 20.9087 20.0336 20.0335C20.9088 19.1583 22.0957 18.6667 23.3334 18.6667H29.3334" stroke="white" stroke-width="2" stroke-linecap="round" stroke-linejoin="round"/>
</g>
<defs>
<clipPath id="clip0_62_7596">
<rect width="32" height="32" fill="white" transform="translate(12 12)"/>
</clipPath>
</defs>
</svg>
