<svg width="48" height="48" viewBox="0 0 48 48" fill="none" xmlns="http://www.w3.org/2000/svg">
<rect width="48" height="48" rx="4" fill="#F4F4F4"/>
<g clip-path="url(#clip0_366_1720)">
<path d="M16.5 22.5V34.5C16.5 34.8978 16.342 35.2794 16.0607 35.5607C15.7794 35.842 15.3978 36 15 36H12C11.6022 36 11.2206 35.842 10.9393 35.5607C10.658 35.2794 10.5 34.8978 10.5 34.5V24C10.5 23.6022 10.658 23.2206 10.9393 22.9393C11.2206 22.658 11.6022 22.5 12 22.5H16.5ZM16.5 22.5C18.0913 22.5 19.6174 21.8679 20.7426 20.7426C21.8679 19.6174 22.5 18.0913 22.5 16.5V15C22.5 14.2044 22.8161 13.4413 23.3787 12.8787C23.9413 12.3161 24.7044 12 25.5 12C26.2956 12 27.0587 12.3161 27.6213 12.8787C28.1839 13.4413 28.5 14.2044 28.5 15V22.5H33C33.7956 22.5 34.5587 22.8161 35.1213 23.3787C35.6839 23.9413 36 24.7044 36 25.5L34.5 33C34.2843 33.9202 33.8751 34.7104 33.334 35.2514C32.7929 35.7925 32.1493 36.0552 31.5 36H21C19.8065 36 18.6619 35.5259 17.818 34.682C16.9741 33.8381 16.5 32.6935 16.5 31.5" stroke="#FF414D" stroke-width="2" stroke-linecap="round" stroke-linejoin="round"/>
</g>
<defs>
<clipPath id="clip0_366_1720">
<rect width="36" height="36" fill="white" transform="translate(6 6)"/>
</clipPath>
</defs>
</svg>
