<svg width="19" height="18" viewBox="0 0 19 18" fill="none" xmlns="http://www.w3.org/2000/svg">
<path fill-rule="evenodd" clip-rule="evenodd" d="M2.66602 0H16.666C17.7706 0 18.666 0.89543 18.666 2V16C18.666 17.1046 17.7706 18 16.666 18H2.66602C1.56145 18 0.666016 17.1046 0.666016 16V2C0.666016 0.89543 1.56145 0 2.66602 0ZM5.66602 15C5.94216 15 6.16602 14.7761 6.16602 14.5V7.5C6.16602 7.2239 5.94216 7 5.66602 7H4.16602C3.88988 7 3.66602 7.2239 3.66602 7.5V14.5C3.66602 14.7761 3.88988 15 4.16602 15H5.66602ZM4.91602 6C4.08759 6 3.41602 5.32843 3.41602 4.5C3.41602 3.67157 4.08759 3 4.91602 3C5.74445 3 6.41602 3.67157 6.41602 4.5C6.41602 5.32843 5.74445 6 4.91602 6ZM15.166 15C15.4421 15 15.666 14.7761 15.666 14.5V9.9C15.6985 8.3108 14.5236 6.95452 12.946 6.76C11.843 6.65925 10.7743 7.1744 10.166 8.1V7.5C10.166 7.2239 9.94212 7 9.66602 7H8.16602C7.88992 7 7.66602 7.2239 7.66602 7.5V14.5C7.66602 14.7761 7.88992 15 8.16602 15H9.66602C9.94212 15 10.166 14.7761 10.166 14.5V10.75C10.166 9.9216 10.8376 9.25 11.666 9.25C12.4944 9.25 13.166 9.9216 13.166 10.75V14.5C13.166 14.7761 13.3899 15 13.666 15H15.166Z" fill="#00C9D4"/>
</svg>
