<svg width="16" height="16" viewBox="0 0 16 16" fill="none" xmlns="http://www.w3.org/2000/svg">
<path d="M11.7714 11.1047L8.94275 13.9334C8.81905 14.0572 8.67215 14.1554 8.51046 14.2225C8.34877 14.2895 8.17545 14.324 8.00042 14.324C7.82539 14.324 7.65207 14.2895 7.49038 14.2225C7.32869 14.1554 7.18179 14.0572 7.05808 13.9334L4.22875 11.1047C3.4829 10.3588 2.97497 9.40852 2.76921 8.37396C2.56344 7.3394 2.66908 6.26706 3.07275 5.29254C3.47643 4.31801 4.16002 3.48508 5.03707 2.89905C5.91413 2.31303 6.94526 2.00024 8.00008 2.00024C9.05491 2.00024 10.086 2.31303 10.9631 2.89905C11.8402 3.48508 12.5237 4.31801 12.9274 5.29254C13.3311 6.26706 13.4367 7.3394 13.231 8.37396C13.0252 9.40852 12.5173 10.3588 11.7714 11.1047Z" stroke="#FF414D" stroke-width="2" stroke-linecap="round" stroke-linejoin="round"/>
<path d="M10 7.33337C10 7.86381 9.78929 8.37252 9.41421 8.74759C9.03914 9.12266 8.53043 9.33337 8 9.33337C7.46957 9.33337 6.96086 9.12266 6.58579 8.74759C6.21071 8.37252 6 7.86381 6 7.33337C6 6.80294 6.21071 6.29423 6.58579 5.91916C6.96086 5.54409 7.46957 5.33337 8 5.33337C8.53043 5.33337 9.03914 5.54409 9.41421 5.91916C9.78929 6.29423 10 6.80294 10 7.33337Z" stroke="#FF414D" stroke-width="2" stroke-linecap="round" stroke-linejoin="round"/>
</svg>
