<svg width="32" height="32" viewBox="0 0 32 32" fill="none" xmlns="http://www.w3.org/2000/svg">
<rect width="32" height="32" rx="6" fill="white"/>
<g clip-path="url(#clip0_3_8)">
<path d="M12 13H20" stroke="#FF414D" stroke-width="2" stroke-linecap="round" stroke-linejoin="round"/>
<path d="M12 17H18" stroke="#FF414D" stroke-width="2" stroke-linecap="round" stroke-linejoin="round"/>
<path d="M22 8C22.7956 8 23.5587 8.31607 24.1213 8.87868C24.6839 9.44129 25 10.2044 25 11V19C25 19.7956 24.6839 20.5587 24.1213 21.1213C23.5587 21.6839 22.7956 22 22 22H17L12 25V22H10C9.20435 22 8.44129 21.6839 7.87868 21.1213C7.31607 20.5587 7 19.7956 7 19V11C7 10.2044 7.31607 9.44129 7.87868 8.87868C8.44129 8.31607 9.20435 8 10 8H22Z" stroke="#FF414D" stroke-width="2" stroke-linecap="round" stroke-linejoin="round"/>
</g>
<defs>
<clipPath id="clip0_3_8">
<rect width="24" height="24" fill="white" transform="translate(4 4)"/>
</clipPath>
</defs>
</svg>
