<svg width="32" height="32" viewBox="0 0 32 32" fill="none" xmlns="http://www.w3.org/2000/svg">
<path d="M3.37193 19.192C3.08839 20.9962 4.35603 22.2483 5.9081 22.8723C11.8584 25.2648 20.139 25.2648 26.0892 22.8723C27.6414 22.2483 28.909 20.9962 28.6255 19.192C28.4512 18.0834 27.5896 17.1602 26.9512 16.2587C26.1151 15.0634 26.032 13.7596 26.0319 12.3726C26.0319 7.01215 21.5399 2.66669 15.9987 2.66669C10.4575 2.66669 5.96554 7.01215 5.96554 12.3726C5.96541 13.7596 5.88233 15.0634 5.04618 16.2587C4.40782 17.1602 3.54618 18.0834 3.37193 19.192Z" stroke="black" stroke-width="1.5" stroke-linecap="round" stroke-linejoin="round"/>
<path d="M12 28C13.0615 28.8292 14.4633 29.3333 16 29.3333C17.5367 29.3333 18.9385 28.8292 20 28" stroke="black" stroke-width="1.5" stroke-linecap="round" stroke-linejoin="round"/>
<circle cx="22.4" cy="6.4" r="6.4" fill="#FF414D"/>
</svg>
