<svg width="56" height="56" viewBox="0 0 56 56" fill="none" xmlns="http://www.w3.org/2000/svg">
<path d="M0 12C0 5.37258 5.37258 0 12 0H44C50.6274 0 56 5.37258 56 12V44C56 50.6274 50.6274 56 44 56H12C5.37258 56 0 50.6274 0 44V12Z" fill="#FF414D"/>
<g clip-path="url(#clip0_62_1216)">
<path d="M36 22.6667C37.0609 22.6667 38.0783 23.0881 38.8284 23.8382C39.5786 24.5884 40 25.6058 40 26.6667C40 27.7275 39.5786 28.7449 38.8284 29.4951C38.0783 30.2452 37.0609 30.6667 36 30.6667" stroke="white" stroke-width="2" stroke-linecap="round" stroke-linejoin="round"/>
<path d="M25.3335 22.6667V37.3333C25.3335 37.6869 25.193 38.0261 24.943 38.2761C24.6929 38.5262 24.3538 38.6667 24.0002 38.6667H22.6668C22.3132 38.6667 21.9741 38.5262 21.724 38.2761C21.474 38.0261 21.3335 37.6869 21.3335 37.3333V30.6667" stroke="white" stroke-width="2" stroke-linecap="round" stroke-linejoin="round"/>
<path d="M28 22.6667L34.032 17.64C34.2073 17.494 34.4205 17.401 34.6468 17.3719C34.873 17.3428 35.1029 17.3787 35.3094 17.4755C35.5159 17.5724 35.6906 17.7261 35.8129 17.9186C35.9352 18.1112 36.0001 18.3346 36 18.5627V34.7707C36.0001 34.9988 35.9352 35.2222 35.8129 35.4147C35.6906 35.6073 35.5159 35.761 35.3094 35.8578C35.1029 35.9546 34.873 35.9906 34.6468 35.9615C34.4205 35.9323 34.2073 35.8393 34.032 35.6933L28 30.6667H17.3333C16.9797 30.6667 16.6406 30.5262 16.3905 30.2762C16.1405 30.0261 16 29.687 16 29.3333V24C16 23.6464 16.1405 23.3073 16.3905 23.0572C16.6406 22.8072 16.9797 22.6667 17.3333 22.6667H28Z" stroke="white" stroke-width="2" stroke-linecap="round" stroke-linejoin="round"/>
</g>
<defs>
<clipPath id="clip0_62_1216">
<rect width="32" height="32" fill="white" transform="translate(12 12)"/>
</clipPath>
</defs>
</svg>
