<svg width="57" height="56" viewBox="0 0 57 56" fill="none" xmlns="http://www.w3.org/2000/svg">
<path d="M0.800049 12C0.800049 5.37258 6.17263 0 12.8 0H44.8C51.4275 0 56.8 5.37258 56.8 12V44C56.8 50.6274 51.4275 56 44.8 56H12.8C6.17263 56 0.800049 50.6274 0.800049 44V12Z" fill="#FF414D"/>
<g clip-path="url(#clip0_331_433)">
<path d="M15.5 28C15.5 29.7728 15.8492 31.5283 16.5276 33.1662C17.2061 34.8041 18.2005 36.2923 19.4541 37.5459C20.7076 38.7995 22.1959 39.7939 23.8338 40.4724C25.4717 41.1508 27.2272 41.5 29 41.5C30.7728 41.5 32.5283 41.1508 34.1662 40.4724C35.8041 39.7939 37.2923 38.7995 38.5459 37.5459C39.7995 36.2923 40.7939 34.8041 41.4724 33.1662C42.1508 31.5283 42.5 29.7728 42.5 28C42.5 26.2272 42.1508 24.4717 41.4724 22.8338C40.7939 21.1959 39.7995 19.7076 38.5459 18.4541C37.2923 17.2005 35.8041 16.2061 34.1662 15.5276C32.5283 14.8492 30.7728 14.5 29 14.5C27.2272 14.5 25.4717 14.8492 23.8338 15.5276C22.1959 16.2061 20.7076 17.2005 19.4541 18.4541C18.2005 19.7076 17.2061 21.1959 16.5276 22.8338C15.8492 24.4717 15.5 26.2272 15.5 28Z" stroke="white" stroke-width="2" stroke-linecap="round" stroke-linejoin="round"/>
<path d="M24.5 25H24.515" stroke="white" stroke-width="2" stroke-linecap="round" stroke-linejoin="round"/>
<path d="M33.5 25H33.515" stroke="white" stroke-width="2" stroke-linecap="round" stroke-linejoin="round"/>
<path d="M25.25 32.5C25.7388 32.9989 26.3223 33.3952 26.9662 33.6658C27.6101 33.9364 28.3015 34.0758 29 34.0758C29.6985 34.0758 30.3899 33.9364 31.0338 33.6658C31.6777 33.3952 32.2612 32.9989 32.75 32.5" stroke="white" stroke-width="2" stroke-linecap="round" stroke-linejoin="round"/>
<path d="M29 14.5C28.2044 14.5 27.4413 14.8161 26.8787 15.3787C26.3161 15.9413 26 16.7044 26 17.5C26 18.2956 26.3161 19.0587 26.8787 19.6213C27.4413 20.1839 28.2044 20.5 29 20.5" stroke="white" stroke-width="2" stroke-linecap="round" stroke-linejoin="round"/>
</g>
<defs>
<clipPath id="clip0_331_433">
<rect width="36" height="36" fill="white" transform="translate(11 10)"/>
</clipPath>
</defs>
</svg>
