<svg width="56" height="56" viewBox="0 0 56 56" fill="none" xmlns="http://www.w3.org/2000/svg">
<path d="M0 12C0 5.37258 5.37258 0 12 0H44C50.6274 0 56 5.37258 56 12V44C56 50.6274 50.6274 56 44 56H12C5.37258 56 0 50.6274 0 44V12Z" fill="#002D40"/>
<path d="M34.0362 27.7542C33.7972 27.6501 33.7865 27.4364 33.8107 27.2918L34.381 25.2848L32.4595 25.6842C32.3937 25.6932 32.2098 25.6791 32.1147 25.3017L31.9454 24.6188L30.6129 26.1477C30.6129 26.1477 29.75 27.0831 30.0205 25.6549L30.5994 22.6034L29.5289 23.1344C29.4682 23.158 29.2572 23.1884 28.9777 22.6591L28 20.8096L27.023 22.6591C26.7434 23.1878 26.5325 23.158 26.4717 23.1344L25.4024 22.6034L25.9801 25.6549C26.2507 27.0831 25.3884 26.1477 25.3884 26.1477L24.0558 24.6188L23.8865 25.3017C23.7914 25.6791 23.6086 25.6926 23.5411 25.6842L21.6196 25.2848L22.1894 27.2918C22.2142 27.4364 22.2029 27.6507 21.9639 27.7542L21.3625 28.0169C21.3625 28.0169 23.567 29.7769 24.2892 30.3766C24.4299 30.493 24.7702 30.8339 24.6532 31.1984L24.3955 31.9971L27.4122 31.5393C27.5669 31.5263 27.8977 31.5528 27.8769 32.0416L27.7362 35.191H28.2639L28.1232 32.0416C28.1024 31.5533 28.4343 31.5263 28.5879 31.5393L31.6045 31.9971L31.3469 31.1984C31.2299 30.8339 31.5697 30.493 31.7109 30.3766C32.4325 29.7769 34.637 28.0169 34.637 28.0169L34.0362 27.7542Z" fill="white"/>
<path d="M28 11.125C18.6805 11.125 11.125 18.6805 11.125 28C11.125 37.3195 18.6805 44.875 28 44.875C37.3195 44.875 44.875 37.3195 44.875 28C44.875 18.6805 37.3195 11.125 28 11.125ZM19.1502 41.0208V14.9793C21.6741 13.258 24.7212 12.25 28 12.25C31.2788 12.25 34.3259 13.258 36.8498 14.9793V41.0213C34.3259 42.742 31.2788 43.75 28 43.75C24.7212 43.75 21.6741 42.742 19.1502 41.0208Z" fill="white"/>
</svg>
