<svg width="56" height="56" viewBox="0 0 56 56" fill="none" xmlns="http://www.w3.org/2000/svg">
<path d="M0 12C0 5.37258 5.37258 0 12 0H44C50.6274 0 56 5.37258 56 12V44C56 50.6274 50.6274 56 44 56H12C5.37258 56 0 50.6274 0 44V12Z" fill="#00415C"/>
<path d="M28 11.125C18.6805 11.125 11.125 18.6805 11.125 28C11.125 37.3195 18.6805 44.875 28 44.875C37.3195 44.875 44.875 37.3195 44.875 28C44.875 18.6805 37.3195 11.125 28 11.125ZM20.8068 42.004C19.4936 41.3268 18.282 40.4687 17.2073 39.4548H38.7932C37.7185 40.4685 36.5069 41.3266 35.1938 42.004H20.8068ZM15.0175 36.9038C14.4648 36.1001 13.9882 35.2467 13.5938 34.3546H42.4067C42.0121 35.2465 41.5355 36.1 40.9831 36.9038H15.0175ZM12.7174 31.8053C12.5099 30.9682 12.3718 30.1154 12.3046 29.2555H43.696C43.6288 30.1154 43.4907 30.9682 43.2831 31.8053H12.7174ZM14.8043 19.4168H15.0169L15.2009 18.8386C15.2363 18.7885 15.2712 18.7379 15.3072 18.6889L15.5389 19.4168H16.3838L15.7004 19.9579L15.9619 20.7961L15.2774 20.2983L14.5939 20.809L14.8555 19.9563L14.5911 19.7476C14.6603 19.6368 14.7329 19.5271 14.8043 19.4168ZM15.9625 27.4341L15.2779 26.9358L14.5945 27.4465L14.8561 26.5938L14.1721 26.0538H15.0169L15.2779 25.2336L15.5395 26.0538H16.3844L15.7009 26.5949L15.9625 27.4341ZM26.3406 15.2785L26.6022 16.0981H27.4471L26.7631 16.6398L27.0246 17.4779L26.3406 16.9795L25.6566 17.4903L25.9182 16.6381L25.2342 16.0975H26.0791L26.3406 15.2785ZM26.0791 22.7356L26.3406 21.916L26.6022 22.7356H27.4471L26.7631 23.2773L27.0246 24.1154L26.3406 23.617L25.6566 24.1283L25.9182 23.2756L25.2342 22.735L26.0791 22.7356ZM24.5502 19.9579L24.8118 20.7961L24.1283 20.2983L23.4437 20.8096L23.7053 19.9568L23.0219 19.4168H23.8668L24.1283 18.5967L24.3899 19.4168H25.2342L24.5502 19.9579ZM24.8118 27.4341L24.1283 26.9358L23.4437 27.4471L23.7053 26.5943L23.0219 26.0543H23.8668L24.1283 25.2342L24.3899 26.0543H25.2342L24.5502 26.5954L24.8118 27.4341ZM22.3384 16.6398L22.6 17.4779L21.916 16.9795L21.232 17.4903L21.4936 16.6381L20.8096 16.0975H21.6544L21.916 15.2779L22.1776 16.0975H23.0224L22.3384 16.6398ZM21.6544 22.7356L21.916 21.916L22.1776 22.7356H23.0224L22.3384 23.2773L22.6 24.1154L21.916 23.617L21.232 24.1283L21.4936 23.2756L20.8096 22.735L21.6544 22.7356ZM20.1256 19.9579L20.3871 20.7961L19.7031 20.2983L19.0191 20.809L19.2807 19.9563L18.5967 19.4163H19.4416L19.7031 18.5961L19.9647 19.4163H20.8096L20.1256 19.9579ZM19.4416 26.0543L19.7031 25.2342L19.9647 26.0543H20.8096L20.1256 26.5954L20.3871 27.4341L19.7031 26.9358L19.0191 27.4465L19.2807 26.5938L18.5967 26.0538L19.4416 26.0543ZM17.9127 23.2773L18.1742 24.1154L17.4903 23.617L16.8068 24.1283L17.0678 23.2756L16.3838 22.735H17.2287L17.4903 21.9154L17.7518 22.735H18.5967L17.9127 23.2773ZM28 24.1553H43.273C43.4811 24.9811 43.6206 25.8333 43.6921 26.7046H28V24.1553ZM28 21.6055V19.0563H40.9538C41.5098 19.8598 41.99 20.7132 42.3882 21.6055H28ZM28 16.5053V13.9555H35.1145C36.4407 14.6299 37.665 15.4883 38.7511 16.5053H28ZM24.3578 12.6797L24.3899 12.7799H25.2342L24.5502 13.321L24.8118 14.1591L24.1283 13.6607L23.4437 14.1721L23.7053 13.3193L23.2716 12.9762C23.6301 12.8646 23.9924 12.7657 24.3578 12.6797ZM17.7518 16.0981H18.5967L17.9127 16.6398L18.1742 17.4779L17.4903 16.9795L16.8068 17.4903L17.0509 16.6937C17.2748 16.4766 17.5049 16.2674 17.7411 16.0643L17.7518 16.0981ZM13.3272 22.7356H14.1721L13.4881 23.2773L13.7496 24.1154L13.0656 23.617L12.8238 23.7976C12.9475 23.3526 13.0876 22.9156 13.2484 22.4869L13.3272 22.7356Z" fill="white"/>
</svg>
