<svg width="19" height="16" viewBox="0 0 19 16" fill="none" xmlns="http://www.w3.org/2000/svg">
<path d="M18.6397 2.7174C18.1753 3.33692 17.6139 3.87733 16.9772 4.31776C16.9772 4.47959 16.9772 4.64142 16.9772 4.81225C16.9823 7.7511 15.8084 10.5691 13.7187 12.6345C11.6289 14.6999 8.79807 15.8399 5.86092 15.7989C4.16286 15.8046 2.48654 15.4169 0.963292 14.6661C0.881152 14.6302 0.828182 14.549 0.828492 14.4593V14.3604C0.828492 14.2313 0.933102 14.1267 1.06214 14.1267C2.73129 14.0716 4.34089 13.4929 5.66321 12.4724C4.1524 12.4419 2.79306 11.5469 2.16747 10.1707C2.13588 10.0956 2.14571 10.0093 2.19344 9.9432C2.24116 9.8771 2.31987 9.8407 2.40112 9.8471C2.86029 9.8932 3.32405 9.8505 3.76707 9.7212C2.09926 9.375 0.846082 7.9904 0.666732 6.2957C0.660362 6.2144 0.696792 6.1357 0.762872 6.0879C0.828942 6.0402 0.915112 6.0303 0.990252 6.062C1.43781 6.2595 1.92096 6.3635 2.41011 6.3676C0.948712 5.40846 0.317482 3.58405 0.873422 1.92622C0.930812 1.76513 1.06868 1.64612 1.23637 1.61294C1.40405 1.57975 1.57683 1.63728 1.69119 1.76439C3.66326 3.86325 6.37291 5.11396 9.24877 5.25279C9.17517 4.95885 9.13897 4.65676 9.14097 4.35372C9.16787 2.76472 10.1511 1.34921 11.6303 0.769872C13.1094 0.190542 14.7918 0.562032 15.8899 1.71044C16.6383 1.56785 17.3619 1.31645 18.0376 0.964212C18.0871 0.933312 18.1499 0.933312 18.1994 0.964212C18.2303 1.01373 18.2303 1.07652 18.1994 1.12604C17.8721 1.87552 17.3192 2.50412 16.6178 2.92419C17.232 2.85296 17.8354 2.70807 18.4151 2.49264C18.4639 2.45942 18.528 2.45942 18.5768 2.49264C18.6177 2.51134 18.6483 2.54711 18.6604 2.59042C18.6725 2.63373 18.6649 2.68018 18.6397 2.7174Z" fill="#00C9D4"/>
</svg>
