<svg width="32" height="33" viewBox="0 0 32 33" fill="none" xmlns="http://www.w3.org/2000/svg">
<path d="M25.3333 4.5H6.66667C5.19391 4.5 4 5.69391 4 7.16667V25.8333C4 27.3061 5.19391 28.5 6.66667 28.5H25.3333C26.8061 28.5 28 27.3061 28 25.8333V7.16667C28 5.69391 26.8061 4.5 25.3333 4.5Z" stroke="#FF414D" stroke-width="2" stroke-linecap="round" stroke-linejoin="round"/>
<path d="M11.332 13.8333C12.4366 13.8333 13.332 12.9379 13.332 11.8333C13.332 10.7288 12.4366 9.83333 11.332 9.83333C10.2275 9.83333 9.33203 10.7288 9.33203 11.8333C9.33203 12.9379 10.2275 13.8333 11.332 13.8333Z" stroke="#FF414D" stroke-width="2" stroke-linecap="round" stroke-linejoin="round"/>
<path d="M28.0013 20.5L21.3346 13.8333L6.66797 28.5" stroke="#FF414D" stroke-width="2" stroke-linecap="round" stroke-linejoin="round"/>
</svg>
