<svg width="57" height="56" viewBox="0 0 57 56" fill="none" xmlns="http://www.w3.org/2000/svg">
<path d="M0.5 12C0.5 5.37258 5.87258 0 12.5 0H44.5C51.1274 0 56.5 5.37258 56.5 12V44C56.5 50.6274 51.1274 56 44.5 56H12.5C5.87258 56 0.5 50.6274 0.5 44V12Z" fill="#F4F4F4"/>
<g clip-path="url(#clip0_366_420)">
<path d="M25 23.5C25 24.2956 25.3161 25.0587 25.8787 25.6213C26.4413 26.1839 27.2044 26.5 28 26.5C28.7956 26.5 29.5587 26.1839 30.1213 25.6213C30.6839 25.0587 31 24.2956 31 23.5C31 22.7044 30.6839 21.9413 30.1213 21.3787C29.5587 20.8161 28.7956 20.5 28 20.5C27.2044 20.5 26.4413 20.8161 25.8787 21.3787C25.3161 21.9413 25 22.7044 25 23.5Z" stroke="#FF414D" stroke-width="2" stroke-linecap="round" stroke-linejoin="round"/>
<path d="M16 22V19C16 18.2044 16.3161 17.4413 16.8787 16.8787C17.4413 16.3161 18.2044 16 19 16H22" stroke="#FF414D" stroke-width="2" stroke-linecap="round" stroke-linejoin="round"/>
<path d="M16 34V37C16 37.7956 16.3161 38.5587 16.8787 39.1213C17.4413 39.6839 18.2044 40 19 40H22" stroke="#FF414D" stroke-width="2" stroke-linecap="round" stroke-linejoin="round"/>
<path d="M34 16H37C37.7956 16 38.5587 16.3161 39.1213 16.8787C39.6839 17.4413 40 18.2044 40 19V22" stroke="#FF414D" stroke-width="2" stroke-linecap="round" stroke-linejoin="round"/>
<path d="M34 40H37C37.7956 40 38.5587 39.6839 39.1213 39.1213C39.6839 38.5587 40 37.7956 40 37V34" stroke="#FF414D" stroke-width="2" stroke-linecap="round" stroke-linejoin="round"/>
<path d="M22 34C22 33.2044 22.3161 32.4413 22.8787 31.8787C23.4413 31.3161 24.2044 31 25 31H31C31.7956 31 32.5587 31.3161 33.1213 31.8787C33.6839 32.4413 34 33.2044 34 34" stroke="#FF414D" stroke-width="2" stroke-linecap="round" stroke-linejoin="round"/>
</g>
<defs>
<clipPath id="clip0_366_420">
<rect width="36" height="36" fill="white" transform="translate(10 10)"/>
</clipPath>
</defs>
</svg>
