<svg width="57" height="56" viewBox="0 0 57 56" fill="none" xmlns="http://www.w3.org/2000/svg">
<path d="M0.5 12C0.5 5.37258 5.87258 0 12.5 0H44.5C51.1274 0 56.5 5.37258 56.5 12V44C56.5 50.6274 51.1274 56 44.5 56H12.5C5.87258 56 0.5 50.6274 0.5 44V12Z" fill="#F4F4F4"/>
<g clip-path="url(#clip0_337_858)">
<path d="M38.3501 20.5C39.7068 22.7518 40.2865 25.3868 40.0001 28V29.5C39.9983 31.0793 40.4122 32.6313 41.2001 34" stroke="#FF414D" stroke-width="2" stroke-linecap="round" stroke-linejoin="round"/>
<path d="M22 26.5C22 24.9087 22.6321 23.3826 23.7574 22.2574C24.8826 21.1321 26.4087 20.5 28 20.5C29.5913 20.5 31.1174 21.1321 32.2426 22.2574C33.3679 23.3826 34 24.9087 34 26.5V28C34 31.2456 35.0527 34.4036 37 37" stroke="#FF414D" stroke-width="2" stroke-linecap="round" stroke-linejoin="round"/>
<path d="M28 26.5V29.5C27.9952 33.7891 29.3039 37.9768 31.75 41.5" stroke="#FF414D" stroke-width="2" stroke-linecap="round" stroke-linejoin="round"/>
<path d="M22 32.5C22.3671 35.6347 23.2809 38.6809 24.7 41.5" stroke="#FF414D" stroke-width="2" stroke-linecap="round" stroke-linejoin="round"/>
<path d="M17.3499 38.5C16.3378 35.0955 15.8819 31.5499 15.9999 28V26.5C15.9942 24.3908 16.5444 22.3173 17.5953 20.4885C18.6462 18.6598 20.1605 17.1403 21.9857 16.0832C23.8109 15.0261 25.8825 14.4687 27.9917 14.4673C30.1009 14.4659 32.1733 15.0204 33.9999 16.075" stroke="#FF414D" stroke-width="2" stroke-linecap="round" stroke-linejoin="round"/>
</g>
<defs>
<clipPath id="clip0_337_858">
<rect width="36" height="36" fill="white" transform="translate(10 10)"/>
</clipPath>
</defs>
</svg>
