<svg width="57" height="56" viewBox="0 0 57 56" fill="none" xmlns="http://www.w3.org/2000/svg">
<path d="M0.600098 12C0.600098 5.37258 5.97268 0 12.6001 0H44.6001C51.2275 0 56.6001 5.37258 56.6001 12V44C56.6001 50.6274 51.2275 56 44.6001 56H12.6001C5.97268 56 0.600098 50.6274 0.600098 44V12Z" fill="#FF414D"/>
<g clip-path="url(#clip0_62_1025)">
<path d="M15.5 28C15.5 29.7728 15.8492 31.5283 16.5276 33.1662C17.2061 34.8041 18.2005 36.2923 19.4541 37.5459C20.7076 38.7995 22.1959 39.7939 23.8338 40.4724C25.4717 41.1508 27.2272 41.5 29 41.5C30.7728 41.5 32.5283 41.1508 34.1662 40.4724C35.8041 39.7939 37.2923 38.7995 38.5459 37.5459C39.7995 36.2923 40.7939 34.8041 41.4724 33.1662C42.1508 31.5283 42.5 29.7728 42.5 28C42.5 26.2272 42.1508 24.4717 41.4724 22.8338C40.7939 21.1959 39.7995 19.7076 38.5459 18.4541C37.2923 17.2005 35.8041 16.2061 34.1662 15.5276C32.5283 14.8492 30.7728 14.5 29 14.5C27.2272 14.5 25.4717 14.8492 23.8338 15.5276C22.1959 16.2061 20.7076 17.2005 19.4541 18.4541C18.2005 19.7076 17.2061 21.1959 16.5276 22.8338C15.8492 24.4717 15.5 26.2272 15.5 28Z" stroke="white" stroke-width="2" stroke-linecap="round" stroke-linejoin="round"/>
<path d="M30.5 32.5V23.5" stroke="white" stroke-width="2" stroke-linecap="round" stroke-linejoin="round"/>
<path d="M34.25 28H38.75" stroke="white" stroke-width="2" stroke-linecap="round" stroke-linejoin="round"/>
<path d="M36.5 25.75V30.25" stroke="white" stroke-width="2" stroke-linecap="round" stroke-linejoin="round"/>
<path d="M21.5 25.75C21.5 25.1533 21.7371 24.581 22.159 24.159C22.581 23.7371 23.1533 23.5 23.75 23.5C24.3467 23.5 24.919 23.7371 25.341 24.159C25.7629 24.581 26 25.1533 26 25.75C26 26.4145 25.5305 27.2335 25.082 27.8395L21.5 32.5H26" stroke="white" stroke-width="2" stroke-linecap="round" stroke-linejoin="round"/>
</g>
<defs>
<clipPath id="clip0_62_1025">
<rect width="36" height="36" fill="white" transform="translate(11 10)"/>
</clipPath>
</defs>
</svg>
