<svg width="80" height="32" viewBox="0 0 80 32" fill="none" xmlns="http://www.w3.org/2000/svg">
<path d="M28.3513 21.1696H30.7277V17.0958H31.7609L34.2848 21.1696H36.8235L34.0339 16.6826C35.2738 16.3136 36.2036 15.4722 36.2036 13.8782V13.8191C36.2036 11.6347 34.6243 10.6162 32.1299 10.6162H28.3513V21.1696ZM30.7277 15.4722V12.4465H32.0708C33.2221 12.4465 33.8716 12.8155 33.8716 13.8929V13.952C33.8716 14.9704 33.2664 15.4722 32.0708 15.4722H30.7277Z" fill="#EAEAEA"/>
<path d="M40.9025 21.3323C43.0132 21.3323 44.3416 20.4025 44.5925 18.7346H42.5704C42.4375 19.384 41.9505 19.8121 40.9616 19.8121C39.7955 19.8121 39.1018 19.0741 39.0428 17.79H44.6073V17.1996C44.6073 14.4394 42.8361 13.2734 40.8435 13.2734C38.6 13.2734 36.873 14.8527 36.873 17.2881V17.4062C36.873 19.8711 38.5704 21.3323 40.9025 21.3323ZM39.0723 16.4763C39.2346 15.3841 39.8841 14.7494 40.8435 14.7494C41.8619 14.7494 42.4523 15.3103 42.5261 16.4763H39.0723Z" fill="#EAEAEA"/>
<path d="M45.6243 21.1697H47.7497V9.95215H45.6243V21.1697Z" fill="#EAEAEA"/>
<path d="M51.8274 21.332C53.0969 21.332 53.8789 20.7416 54.2774 19.9593V21.1696H56.4029V13.4502H54.2774V17.9815C54.2774 19.118 53.5689 19.6789 52.6689 19.6789C51.7539 19.6789 51.3254 19.177 51.3254 18.1291V13.4502H49.2002V18.4243C49.2002 20.4464 50.3219 21.332 51.8274 21.332Z" fill="#EAEAEA"/>
<path d="M57.854 21.17H59.9945V16.6092C59.9945 15.5612 60.6585 15.0298 61.485 15.0298C62.238 15.0298 62.6955 15.4726 62.6955 16.4616V21.17H64.821V16.6092C64.821 15.5612 65.485 15.0298 66.3115 15.0298C67.079 15.0298 67.522 15.4726 67.522 16.4616V21.17H69.6475V16.2254C69.6475 14.1738 68.5405 13.2734 67.1085 13.2734C66.1345 13.2734 65.131 13.6867 64.511 14.6166C64.142 13.7015 63.3745 13.2734 62.356 13.2734C61.2045 13.2734 60.378 13.9081 59.9945 14.6313V13.4505H57.854V21.17Z" fill="#EAEAEA"/>
<path d="M74.5896 21.3323C76.7006 21.3323 78.0291 20.4025 78.2796 18.7346H76.2576C76.1246 19.384 75.6376 19.8121 74.6486 19.8121C73.4826 19.8121 72.7891 19.0741 72.7301 17.79H78.2946V17.1996C78.2946 14.4394 76.5231 13.2734 74.5306 13.2734C72.2871 13.2734 70.5601 14.8527 70.5601 17.2881V17.4062C70.5601 19.8711 72.2576 21.3323 74.5896 21.3323ZM72.7596 16.4763C72.9221 15.3841 73.5716 14.7494 74.5306 14.7494C75.5491 14.7494 76.1396 15.3103 76.2136 16.4763H72.7596Z" fill="#EAEAEA"/>
<path fill-rule="evenodd" clip-rule="evenodd" d="M20.1731 11.248L20.0296 10.9917C19.8446 10.6818 19.5835 10.4243 19.2712 10.2435L12.3934 6.27675C12.082 6.0961 11.7285 6.00065 11.3684 6H11.0712C10.7111 6.00065 10.3576 6.0961 10.0462 6.27675L3.16849 10.2537C2.85789 10.4333 2.59988 10.6914 2.42025 11.002L2.27675 11.2583C2.09609 11.5697 2.00064 11.9232 2 12.2832V20.2269C2.00064 20.587 2.09609 20.9405 2.27675 21.2519L2.42025 21.5082C2.60453 21.8152 2.86149 22.0722 3.16849 22.2565L10.0564 26.2232C10.3663 26.4076 10.7209 26.5033 11.0814 26.4999H11.3684C11.7285 26.4993 12.082 26.4038 12.3934 26.2232L19.2712 22.2462C19.5848 22.0706 19.8438 21.8116 20.0194 21.4979L20.1731 21.2417C20.3516 20.9293 20.4469 20.5764 20.4499 20.2167V12.273C20.4493 11.913 20.3538 11.5594 20.1731 11.248ZM11.0712 8.04995H11.3684L17.3749 11.5145L11.2249 15.0609L5.075 11.5145L11.0712 8.04995ZM12.2499 23.9375L18.2461 20.473L18.3999 20.2167V13.2878L12.2499 16.8445V23.9375Z" fill="#EAEAEA"/>
</svg>
