<svg width="80" height="32" viewBox="0 0 80 32" fill="none" xmlns="http://www.w3.org/2000/svg">
<path d="M26.5357 13.9691C26.5357 12.6043 25.2124 11.1565 22.9179 11.1565C20.3404 11.1565 17.5132 13.0434 17.0756 16.8141C16.6339 20.6264 19.0073 22.3109 21.392 22.3109C23.776 22.3109 25.031 21.3819 26.3055 20.1367C25.205 18.7507 23.7857 19.3958 23.5173 19.5308C23.2204 19.6796 22.8309 19.8854 22.0394 19.8854C21.1155 19.8854 20.1785 19.4673 20.1785 17.7519C26.0851 17.1858 26.5357 15.3347 26.5357 13.9691ZM23.6084 14.1976C23.5702 14.6181 23.3978 15.3461 20.4087 15.7463C21.0391 13.5079 22.2412 13.342 22.7967 13.342C23.3172 13.342 23.6491 13.7454 23.6084 14.1976ZM13.6041 14.5611C13.6041 14.5611 12.3337 18.545 12.2353 18.8793C12.2011 18.545 11.2715 11.3891 11.2715 11.3891C9.1079 11.3891 7.9505 12.9264 7.3405 14.5596C7.3405 14.5596 5.7951 18.5547 5.66985 18.889C5.66255 18.5759 5.43235 14.6011 5.43235 14.6011C5.3014 12.6034 3.47787 11.394 2 11.394L3.77718 22.2352C6.04725 22.2279 7.2624 20.6931 7.90335 19.0631C7.90335 19.0631 9.26245 15.538 9.3186 15.3778C9.3324 15.5307 10.2963 22.2352 10.2963 22.2352C12.568 22.2352 13.7937 20.798 14.4533 19.2266L17.6409 11.394C15.396 11.394 14.2141 12.9271 13.6041 14.5611ZM34.8791 11.1418C33.4826 11.1418 32.4065 11.9007 31.5005 13.0223L31.5021 13.0141L32.3073 6.5C30.448 6.5 28.9286 8.1186 28.6399 10.5196L27.2255 22.1506C28.2983 22.1506 29.4345 21.8391 30.0478 21.0509C30.5968 21.7561 31.4126 22.3181 32.6204 22.3181C35.7559 22.3181 37.9113 18.6735 37.9113 15.2517C37.9113 12.1293 36.392 11.1418 34.8791 11.1418ZM34.5912 16.7296C34.2659 18.6426 33.2028 19.9326 32.173 19.9326C31.1353 19.9326 30.6968 19.4739 30.6968 19.4739C30.8904 17.8016 31.0189 16.7759 31.3972 15.8926C31.7745 15.0093 32.6668 13.5998 33.6005 13.5998C34.5082 13.5998 34.9166 14.8174 34.5912 16.7296ZM45.7716 11.3948H43.5764L43.5869 11.2801C43.7365 9.84695 44.0798 9.0946 45.1908 8.9791C45.9497 8.90105 46.2929 8.50655 46.3727 8.08035C46.4353 7.74605 46.6475 6.56425 46.6475 6.56425C42.244 6.53905 40.8638 8.43985 40.5116 11.3289L40.5034 11.394L40.4604 11.3956C39.7454 11.3956 38.9606 12.2049 38.8231 13.233L38.7751 13.6111H40.2392L39.0102 23.7854L38.6376 25.6138L38.7889 25.6187C40.8442 25.5406 42.1668 23.9196 42.4588 21.5593L43.4185 13.6111H44.1067C44.7801 13.6111 45.5715 12.9361 45.7179 11.808L45.7716 11.3948ZM57.1635 11.2061C54.634 11.2061 52.25 13.0679 51.517 15.9967C50.785 18.9249 51.898 22.3824 55.6155 22.3824C59.3345 22.3824 61.471 18.7784 61.471 15.7861C61.471 12.7921 59.4475 11.2061 57.1635 11.2061ZM58.189 16.6425C58.058 17.9707 57.4725 19.9773 55.872 19.9773C54.2645 19.9773 54.493 17.6227 54.6485 16.5051C54.8155 15.307 55.4885 13.6111 56.921 13.6111C58.215 13.6111 58.337 15.1427 58.189 16.6425ZM73.9625 14.5611C73.9625 14.5611 72.692 18.545 72.5945 18.8793C72.5595 18.545 71.63 11.3891 71.63 11.3891C69.4665 11.3891 68.3095 12.9264 67.699 14.5596C67.699 14.5596 66.1545 18.5547 66.029 18.889C66.0215 18.5759 65.7915 14.6011 65.7915 14.6011C65.6605 12.6034 63.836 11.394 62.359 11.394L64.1355 22.2352C66.4055 22.2279 67.6215 20.6931 68.2625 19.0631C68.2625 19.0631 69.6215 15.538 69.6775 15.3778C69.6915 15.5307 70.6545 22.2352 70.6545 22.2352C72.9265 22.2352 74.152 20.798 74.8115 19.2266L78 11.394C75.7545 11.394 74.5725 12.9271 73.9625 14.5611ZM47.8375 6.56425L45.9944 21.4291L45.9896 21.4267L45.6154 23.2649L45.7659 23.2698C47.7505 23.2453 49.1584 21.504 49.4235 19.3079L50.488 10.7758C50.811 8.17715 49.2617 6.56425 47.8375 6.56425Z" fill="#EAEAEA"/>
</svg>
